<?xml version="1.0" encoding="UTF-8"?>
<svg xmlns="http://www.w3.org/2000/svg" xmlns:xlink="http://www.w3.org/1999/xlink" width="40pt" height="27pt" viewBox="0 0 40 27" version="1.1">
<defs>
<linearGradient id="linear0" gradientUnits="userSpaceOnUse" x1="0.65625" y1="125.12147" x2="299.9375" y2="125.12147" gradientTransform="matrix(0.129032,0,0,0.128571,0.606721,0.572253)">
<stop offset="0" style="stop-color:rgb(33.333333%,48.235294%,54.509804%);stop-opacity:1;"/>
<stop offset="1" style="stop-color:rgb(54.117647%,66.666667%,75.294118%);stop-opacity:1;"/>
</linearGradient>
</defs>
<g id="surface1">
<path style=" stroke:none;fill-rule:nonzero;fill:url(#linear0);" d="M 0.691406 7.003906 L 0.691406 19.941406 L 0.695312 19.941406 C 0.710938 22.140625 4.171875 24.28125 10.347656 25.457031 C 19.582031 27.21875 31.390625 26.171875 36.71875 23.121094 C 38.472656 22.117188 39.308594 21.023438 39.308594 19.941406 L 39.308594 7.035156 C 39.300781 8.117188 38.46875 9.207031 36.71875 10.207031 C 31.390625 13.257812 19.582031 14.304688 10.347656 12.542969 C 4.148438 11.359375 0.6875 9.210938 0.695312 7.003906 Z M 0.691406 7.003906 "/>
<path style=" stroke:none;fill-rule:nonzero;fill:rgb(33.333333%,48.235294%,54.509804%);fill-opacity:1;" d="M 36.71875 10.253906 C 31.390625 13.304688 19.582031 14.351562 10.347656 12.589844 C 1.113281 10.828125 -2.050781 6.925781 3.285156 3.875 C 8.613281 0.824219 20.421875 -0.222656 29.65625 1.539062 C 38.890625 3.300781 42.054688 7.203125 36.71875 10.253906 Z M 36.71875 10.253906 "/>
<path style=" stroke:none;fill-rule:evenodd;fill:rgb(100%,100%,100%);fill-opacity:1;" d="M 30.316406 6.566406 L 27.890625 7.953125 L 36.484375 9.59375 L 34.867188 10.515625 L 26.277344 8.878906 L 23.851562 10.265625 L 22.242188 7.492188 Z M 30.316406 6.566406 "/>
<path style=" stroke:none;fill-rule:evenodd;fill:rgb(100%,100%,100%);fill-opacity:1;" d="M 16.152344 3.863281 L 13.726562 5.25 L 5.136719 3.613281 L 3.519531 4.535156 L 12.113281 6.175781 L 9.6875 7.5625 L 17.761719 6.636719 Z M 16.152344 3.863281 "/>
<path style=" stroke:none;fill-rule:evenodd;fill:rgb(100%,100%,100%);fill-opacity:1;" d="M 18.226562 11.496094 L 14.867188 10.855469 L 19.828125 8.019531 L 17.589844 7.589844 L 12.628906 10.429688 L 9.269531 9.789062 L 10.953125 12.242188 Z M 18.226562 11.496094 "/>
<path style=" stroke:none;fill-rule:evenodd;fill:rgb(100%,100%,100%);fill-opacity:1;" d="M 30.734375 4.339844 L 27.375 3.699219 L 22.414062 6.539062 L 20.175781 6.109375 L 25.136719 3.273438 L 21.777344 2.632812 L 29.050781 1.886719 Z M 30.734375 4.339844 "/>
<path style="fill:none;stroke-width:1;stroke-linecap:butt;stroke-linejoin:miter;stroke:rgb(100%,100%,100%);stroke-opacity:1;stroke-miterlimit:4;" d="M 147.088006 0.540556 C 96.561638 0.90514 47.851677 9.776668 20.756951 25.332223 C 7.376091 33.018855 0.897576 41.404272 0.685662 49.698543 L 0.655388 49.698543 L 0.655388 150.323543 L 0.685662 150.323543 C 0.806756 167.428577 27.629021 184.047501 75.491326 193.222848 C 147.057732 206.925105 238.574334 198.752362 279.867302 175.024063 C 293.460076 167.215904 299.938591 158.708959 299.938591 150.323543 L 299.938591 50.275799 C 300.029412 33.110001 273.207146 16.369549 225.132927 7.16382 C 200.520623 2.454619 173.54699 0.327883 147.088006 0.540556 Z M 147.088006 0.540556 " transform="matrix(0.129032,0,0,0.128571,0.60684,0.618)"/>
</g>
</svg>
